<svg width="20" height="20" viewBox="0 0 20 20" fill="none" xmlns="http://www.w3.org/2000/svg">
<path d="M17 10C17 6.13401 13.866 3 10 3C6.13401 3 3 6.13401 3 10C3 13.866 6.13401 17 10 17C13.866 17 17 13.866 17 10ZM19 10C19 14.9706 14.9706 19 10 19C5.02944 19 1 14.9706 1 10C1 5.02944 5.02944 1 10 1C14.9706 1 19 5.02944 19 10Z" fill="white"/>
<path d="M0.292893 0.292969C0.683417 -0.0975548 1.31643 -0.0975548 1.70696 0.292969L4.70696 3.29297C5.09748 3.68349 5.09748 4.31651 4.70696 4.70703C4.31643 5.09756 3.68342 5.09756 3.29289 4.70703L0.292893 1.70703C-0.0976311 1.31651 -0.0976311 0.683494 0.292893 0.292969Z" fill="white"/>
<path d="M18.2929 0.292969C18.6834 -0.0975548 19.3164 -0.0975548 19.707 0.292969C20.0975 0.683494 20.0975 1.31651 19.707 1.70703L16.707 4.70703C16.3164 5.09756 15.6834 5.09756 15.2929 4.70703C14.9024 4.31651 14.9024 3.68349 15.2929 3.29297L18.2929 0.292969Z" fill="white"/>
<path d="M3.29289 15.293C3.68342 14.9024 4.31643 14.9024 4.70696 15.293C5.09748 15.6835 5.09748 16.3165 4.70696 16.707L1.70696 19.707C1.31643 20.0976 0.683417 20.0976 0.292893 19.707C-0.0976311 19.3165 -0.0976311 18.6835 0.292893 18.293L3.29289 15.293Z" fill="white"/>
<path d="M15.2929 15.293C15.6834 14.9024 16.3164 14.9024 16.707 15.293L19.707 18.293C20.0975 18.6835 20.0975 19.3165 19.707 19.707C19.3164 20.0976 18.6834 20.0976 18.2929 19.707L15.2929 16.707C14.9024 16.3165 14.9024 15.6835 15.2929 15.293Z" fill="white"/>
</svg>
